<svg id="visual" viewBox="0 0 900 600" width="900" height="600" xmlns="http://www.w3.org/2000/svg" xmlns:xlink="http://www.w3.org/1999/xlink" version="1.1"><g><g transform="translate(317 227)"><path d="M53.5 -41.9C65.2 -28 67.7 -6 61.3 10.8C54.9 27.6 39.7 39.1 24.2 44.2C8.8 49.3 -6.8 48 -24 42.5C-41.1 37 -59.7 27.5 -61.8 15C-63.9 2.6 -49.5 -12.7 -36.4 -26.9C-23.4 -41.1 -11.7 -54.1 4.6 -57.8C20.9 -61.5 41.8 -55.8 53.5 -41.9Z" fill="none" stroke="#ffffff" stroke-width="21"></path></g><g transform="translate(751 352)"><path d="M25.9 -22.2C32.6 -12.3 36.3 -1.6 34.3 8C32.2 17.6 24.4 26 13.7 33C2.9 39.9 -10.8 45.4 -20 41.1C-29.3 36.8 -34 22.9 -35.5 10C-37 -2.9 -35.1 -14.8 -28.7 -24.6C-22.2 -34.5 -11.1 -42.5 -0.7 -41.9C9.6 -41.3 19.2 -32.2 25.9 -22.2Z" stroke="#ffffff" fill="none" stroke-width="21"></path></g><g transform="translate(143 104)"><path d="M30.9 -21C40.1 -13.1 47.6 -0.3 44.5 9.1C41.5 18.4 28 24.3 14.5 31.3C1 38.2 -12.6 46.2 -23.8 43.2C-35 40.2 -43.9 26.1 -45.4 12.4C-46.9 -1.3 -41 -14.7 -32.3 -22.5C-23.5 -30.3 -11.7 -32.6 -0.4 -32.2C10.9 -31.9 21.7 -28.9 30.9 -21Z" stroke="#ffffff" fill="none" stroke-width="21"></path></g><g transform="translate(224 387)"><path d="M27.2 -22.2C36.9 -9.6 47.5 1.8 47 13.5C46.6 25.2 35.1 37.1 20.8 44.6C6.5 52 -10.7 54.9 -23.8 48.9C-36.9 42.8 -46 27.7 -46.8 13.7C-47.5 -0.2 -40 -13 -30.8 -25.5C-21.6 -38 -10.8 -50.2 -1 -49.4C8.8 -48.6 17.6 -34.8 27.2 -22.2Z" stroke="#ffffff" fill="none" stroke-width="21"></path></g><g transform="translate(533 122)"><path d="M35.4 -29C43.7 -17.9 46.7 -3.3 44.8 12.4C42.9 28 36.2 44.7 24.6 49.8C13 54.9 -3.6 48.4 -16.7 40C-29.8 31.7 -39.5 21.4 -46 6.6C-52.5 -8.3 -55.9 -27.8 -47.7 -38.9C-39.5 -50 -19.8 -52.7 -3.1 -50.3C13.6 -47.8 27.1 -40.1 35.4 -29Z" stroke="#ffffff" fill="none" stroke-width="21"></path></g><g transform="translate(648 499)"><path d="M48.6 -33.1C60.9 -23.3 67.5 -3.2 62 11.4C56.5 26 38.9 35.1 23.2 39.3C7.5 43.5 -6.4 42.7 -17 37C-27.6 31.2 -35 20.5 -37.9 8.5C-40.8 -3.5 -39.1 -16.7 -32.1 -25.4C-25 -34 -12.5 -38.1 2.8 -40.4C18.1 -42.6 36.2 -43 48.6 -33.1Z" stroke="#ffffff" fill="none" stroke-width="21"></path></g><g transform="translate(481 356)"><path d="M31.6 -30.4C38.7 -16.3 40.6 -3.3 37.8 8.6C35.1 20.5 27.7 31.3 15.3 40.6C3 49.8 -14.3 57.6 -25.4 52.4C-36.5 47.2 -41.5 28.9 -42.7 12.9C-43.9 -3.2 -41.2 -16.9 -33.4 -31.1C-25.7 -45.3 -12.8 -60 -0.3 -59.7C12.3 -59.5 24.5 -44.4 31.6 -30.4Z" stroke="#ffffff" fill="none" stroke-width="21"></path></g><g transform="translate(696 182)"><path d="M39.2 -31.5C48.7 -19.2 53.1 -3.1 48.3 8.2C43.5 19.5 29.6 26 15.9 32.3C2.3 38.5 -11.1 44.6 -21.8 41.1C-32.5 37.5 -40.5 24.3 -41.6 11.8C-42.6 -0.8 -36.6 -12.6 -28.5 -24.5C-20.4 -36.4 -10.2 -48.4 2.3 -50.3C14.8 -52.1 29.6 -43.7 39.2 -31.5Z" stroke="#ffffff" fill="none" stroke-width="21"></path></g><g transform="translate(367 501)"><path d="M34.2 -23.9C45.5 -13.2 56.5 1.1 54.3 13.2C52.2 25.2 36.9 35.1 19.6 45.1C2.3 55.1 -17.1 65.3 -28.7 59.7C-40.4 54.1 -44.3 32.5 -47.9 12.3C-51.4 -8 -54.5 -26.9 -46.4 -36.9C-38.4 -46.8 -19.2 -47.8 -3.9 -44.7C11.5 -41.6 23 -34.5 34.2 -23.9Z" stroke="#ffffff" fill="none" stroke-width="21"></path></g><g transform="translate(89 268)"><path d="M28.9 -23.8C37.4 -12.3 44.3 -0.3 41.8 9.1C39.3 18.5 27.4 25.3 16.1 29.1C4.7 33 -6 33.8 -18.5 30.7C-31 27.7 -45.2 20.6 -48.9 9.7C-52.5 -1.2 -45.5 -16 -35.6 -27.7C-25.7 -39.5 -12.8 -48.3 -1.3 -47.2C10.2 -46.1 20.3 -35.2 28.9 -23.8Z" stroke="#ffffff" fill="none" stroke-width="21"></path></g></g></svg>