<svg id="visual" viewBox="0 0 900 600" width="900" height="600" xmlns="http://www.w3.org/2000/svg" xmlns:xlink="http://www.w3.org/1999/xlink" version="1.1"><g><g transform="translate(71 533)"><path d="M0 -54.2L47 -27.1L47 27.1L0 54.2L-47 27.1L-47 -27.1Z" fill="none" stroke="#b8cfda" stroke-width="2"></path></g><g transform="translate(203 255)"><path d="M0 -15L13 -7.5L13 7.5L0 15L-13 7.5L-13 -7.5Z" fill="none" stroke="#b8cfda" stroke-width="2"></path></g><g transform="translate(395 239)"><path d="M0 -36L31.2 -18L31.2 18L0 36L-31.2 18L-31.2 -18Z" fill="none" stroke="#b8cfda" stroke-width="2"></path></g><g transform="translate(64 201)"><path d="M0 -50L43.3 -25L43.3 25L0 50L-43.3 25L-43.3 -25Z" fill="none" stroke="#b8cfda" stroke-width="2"></path></g><g transform="translate(542 511)"><path d="M0 -33L28.6 -16.5L28.6 16.5L0 33L-28.6 16.5L-28.6 -16.5Z" fill="none" stroke="#b8cfda" stroke-width="2"></path></g><g transform="translate(535 163)"><path d="M0 -9L7.8 -4.5L7.8 4.5L0 9L-7.8 4.5L-7.8 -4.5Z" fill="none" stroke="#b8cfda" stroke-width="2"></path></g><g transform="translate(430 120)"><path d="M0 -49L42.4 -24.5L42.4 24.5L0 49L-42.4 24.5L-42.4 -24.5Z" fill="none" stroke="#b8cfda" stroke-width="2"></path></g><g transform="translate(393 498)"><path d="M0 -11L9.5 -5.5L9.5 5.5L0 11L-9.5 5.5L-9.5 -5.5Z" stroke="#b8cfda" fill="none" stroke-width="2"></path></g><g transform="translate(554 388)"><path d="M0 -37L32 -18.5L32 18.5L0 37L-32 18.5L-32 -18.5Z" stroke="#b8cfda" fill="none" stroke-width="2"></path></g><g transform="translate(773 326)"><path d="M0 -41L35.5 -20.5L35.5 20.5L0 41L-35.5 20.5L-35.5 -20.5Z" stroke="#b8cfda" fill="none" stroke-width="2"></path></g><g transform="translate(304 55)"><path d="M0 -53L45.9 -26.5L45.9 26.5L0 53L-45.9 26.5L-45.9 -26.5Z" stroke="#b8cfda" fill="none" stroke-width="2"></path></g><g transform="translate(674 237)"><path d="M0 -9L7.8 -4.5L7.8 4.5L0 9L-7.8 4.5L-7.8 -4.5Z" stroke="#b8cfda" fill="none" stroke-width="2"></path></g><g transform="translate(685 534)"><path d="M0 -35L30.3 -17.5L30.3 17.5L0 35L-30.3 17.5L-30.3 -17.5Z" stroke="#b8cfda" fill="none" stroke-width="2"></path></g><g transform="translate(230 490)"><path d="M0 -47L40.7 -23.5L40.7 23.5L0 47L-40.7 23.5L-40.7 -23.5Z" stroke="#b8cfda" fill="none" stroke-width="2"></path></g><g transform="translate(825 59)"><path d="M0 -44L38.1 -22L38.1 22L0 44L-38.1 22L-38.1 -22Z" stroke="#b8cfda" fill="none" stroke-width="2"></path></g><g transform="translate(207 125)"><path d="M0 -34L29.4 -17L29.4 17L0 34L-29.4 17L-29.4 -17Z" stroke="#b8cfda" fill="none" stroke-width="2"></path></g><g transform="translate(757 158)"><path d="M0 -52L45 -26L45 26L0 52L-45 26L-45 -26Z" stroke="#b8cfda" fill="none" stroke-width="2"></path></g><g transform="translate(123 350)"><path d="M0 -52L45 -26L45 26L0 52L-45 26L-45 -26Z" stroke="#b8cfda" fill="none" stroke-width="2"></path></g><g transform="translate(447 359)"><path d="M0 -33L28.6 -16.5L28.6 16.5L0 33L-28.6 16.5L-28.6 -16.5Z" stroke="#b8cfda" fill="none" stroke-width="2"></path></g><g transform="translate(263 362)"><path d="M0 -38L32.9 -19L32.9 19L0 38L-32.9 19L-32.9 -19Z" stroke="#b8cfda" fill="none" stroke-width="2"></path></g><g transform="translate(581 57)"><path d="M0 -7L6.1 -3.5L6.1 3.5L0 7L-6.1 3.5L-6.1 -3.5Z" stroke="#b8cfda" fill="none" stroke-width="2"></path></g><g transform="translate(740 440)"><path d="M0 -25L21.7 -12.5L21.7 12.5L0 25L-21.7 12.5L-21.7 -12.5Z" stroke="#b8cfda" fill="none" stroke-width="2"></path></g><g transform="translate(72 72)"><path d="M0 -22L19.1 -11L19.1 11L0 22L-19.1 11L-19.1 -11Z" stroke="#b8cfda" fill="none" stroke-width="2"></path></g><g transform="translate(534 281)"><path d="M0 -16L13.9 -8L13.9 8L0 16L-13.9 8L-13.9 -8Z" stroke="#b8cfda" fill="none" stroke-width="2"></path></g><g transform="translate(696 58)"><path d="M0 -44L38.1 -22L38.1 22L0 44L-38.1 22L-38.1 -22Z" stroke="#b8cfda" fill="none" stroke-width="2"></path></g><g transform="translate(821 532)"><path d="M0 -41L35.5 -20.5L35.5 20.5L0 41L-35.5 20.5L-35.5 -20.5Z" stroke="#b8cfda" fill="none" stroke-width="2"></path></g><g transform="translate(297 189)"><path d="M0 -27L23.4 -13.5L23.4 13.5L0 27L-23.4 13.5L-23.4 -13.5Z" stroke="#b8cfda" fill="none" stroke-width="2"></path></g><g transform="translate(842 228)"><path d="M0 -42L36.4 -21L36.4 21L0 42L-36.4 21L-36.4 -21Z" stroke="#b8cfda" fill="none" stroke-width="2"></path></g><g transform="translate(658 355)"><path d="M0 -31L26.8 -15.5L26.8 15.5L0 31L-26.8 15.5L-26.8 -15.5Z" stroke="#b8cfda" fill="none" stroke-width="2"></path></g></g></svg>