<?xml version="1.0" standalone="no"?><svg xmlns="http://www.w3.org/2000/svg" viewBox="0 0 1440 320"><path fill="#fb923c" fill-opacity="1" d="M0,160L0,96L55.4,96L55.4,64L110.8,64L110.8,288L166.2,288L166.2,192L221.5,192L221.5,32L276.9,32L276.9,64L332.3,64L332.3,160L387.7,160L387.7,0L443.1,0L443.1,32L498.5,32L498.5,160L553.8,160L553.8,192L609.2,192L609.2,224L664.6,224L664.6,96L720,96L720,160L775.4,160L775.4,32L830.8,32L830.8,256L886.2,256L886.2,256L941.5,256L941.5,32L996.9,32L996.9,192L1052.3,192L1052.3,160L1107.7,160L1107.7,128L1163.1,128L1163.1,96L1218.5,96L1218.5,224L1273.8,224L1273.8,224L1329.2,224L1329.2,0L1384.6,0L1384.6,288L1440,288L1440,320L1384.6,320L1384.6,320L1329.2,320L1329.2,320L1273.8,320L1273.8,320L1218.5,320L1218.5,320L1163.1,320L1163.1,320L1107.7,320L1107.7,320L1052.3,320L1052.3,320L996.9,320L996.9,320L941.5,320L941.5,320L886.2,320L886.2,320L830.8,320L830.8,320L775.4,320L775.4,320L720,320L720,320L664.6,320L664.6,320L609.2,320L609.2,320L553.8,320L553.8,320L498.5,320L498.5,320L443.1,320L443.1,320L387.7,320L387.7,320L332.3,320L332.3,320L276.9,320L276.9,320L221.5,320L221.5,320L166.2,320L166.2,320L110.8,320L110.8,320L55.4,320L55.4,320L0,320L0,320Z"></path></svg>